<?xml version="1.0"?>
<svg xmlns="http://www.w3.org/2000/svg" xmlns:xlink="http://www.w3.org/1999/xlink" xmlns:svgjs="http://svgjs.com/svgjs" version="1.1" width="512" height="512" x="0" y="0" viewBox="0 0 60 60" style="enable-background:new 0 0 512 512" xml:space="preserve" class=""><g><g xmlns="http://www.w3.org/2000/svg" id="042---Shopping-Bag"><path id="Shape" d="m57 0h-54c-1.65685425 0-3 1.34314575-3 3v44c0 1.6568542 1.34314575 3 3 3h17.66l-2.4 8h-2.26c-.5522847 0-1 .4477153-1 1s.4477153 1 1 1h28c.5522847 0 1-.4477153 1-1s-.4477153-1-1-1h-2.26l-2.4-8h17.66c1.6568542 0 3-1.3431458 3-3v-44c0-1.65685425-1.3431458-3-3-3zm-17.34 58h-19.32l2.4-8h14.52zm17.34-10h-54c-.55228475 0-1-.4477153-1-1v-4h4c.55228475 0 1-.4477153 1-1s-.44771525-1-1-1h-4v-38c0-.55228475.44771525-1 1-1h54c.5522847 0 1 .44771525 1 1v38h-6.14c.2818673-1.0149885.1297641-2.1014399-.42-3h.56c.5522847 0 1-.4477153 1-1s-.4477153-1-1-1h-19.31l-5.75-15.35c-.1464639-.3920069-.5215275-.6513593-.94-.65h-4c-.5522847 0-1 .4477153-1 1s.4477153 1 1 1h3.31l5.75 15.35c.0993506.2538235.2980076.4560925.55.56-.5877226.9167624-.7585636 2.0399514-.47 3.09h-21.14c-.55228475 0-1 .4477153-1 1s.44771525 1 1 1h22.38c1.4935615 1.3297975 3.7464385 1.3297975 5.24 0h7.76c1.4935615 1.3297975 3.7464385 1.3297975 5.24 0h7.38v4c0 .5522847-.4477153 1-1 1zm-24-8c0-1.1045695.8954305-2 2-2s2 .8954305 2 2-.8954305 2-2 2-2-.8954305-2-2zm5.44-2h6.12c-.5497641.8985601-.7018673 1.9850115-.42 3h-5.28c.2818673-1.0149885.1297641-2.1014399-.42-3zm7.56 2c0-1.1045695.8954305-2 2-2s2 .8954305 2 2-.8954305 2-2 2-2-.8954305-2-2z" fill="#f5f5f5" data-original="#000000" style=""/><path id="Shape" d="m7 18h15c1.1045695 0 2-.8954305 2-2v-9c0-1.1045695-.8954305-2-2-2h-15c-1.1045695 0-2 .8954305-2 2v9c0 1.1045695.8954305 2 2 2zm0-11h15v9h-15z" fill="#f5f5f5" data-original="#000000" style=""/><path id="Shape" d="m33.82 32.72c.2981652.7727106 1.0417602 1.2816953 1.87 1.28h15.51c.9316837.0005974 1.7403713-.6422056 1.95-1.55l2.54-11c.1371976-.5941312-.0041395-1.2183961-.383869-1.695492-.3797294-.477096-.9563648-.754899-1.566131-.754508h-22.28c-.6600412-.0013521-1.2782477.3230354-1.6521809.8669382-.3739331.5439027-.4554358 1.2372741-.2178191 1.8530618zm19.92-11.72-2.54 11h-15.51l-4.23-11z" fill="#f5f5f5" data-original="#000000" style=""/><path id="Shape" d="m6 22h10c.5522847 0 1-.4477153 1-1s-.4477153-1-1-1h-10c-.55228475 0-1 .4477153-1 1s.44771525 1 1 1z" fill="#f5f5f5" data-original="#000000" style=""/><path id="Shape" d="m6 27h16c.5522847 0 1-.4477153 1-1s-.4477153-1-1-1h-16c-.55228475 0-1 .4477153-1 1s.44771525 1 1 1z" fill="#f5f5f5" data-original="#000000" style=""/><path id="Shape" d="m6 32h16c.5522847 0 1-.4477153 1-1s-.4477153-1-1-1h-16c-.55228475 0-1 .4477153-1 1s.44771525 1 1 1z" fill="#f5f5f5" data-original="#000000" style=""/><path id="Shape" d="m23 36c0-.5522847-.4477153-1-1-1h-16c-.55228475 0-1 .4477153-1 1s.44771525 1 1 1h16c.5522847 0 1-.4477153 1-1z" fill="#f5f5f5" data-original="#000000" style=""/><path id="Shape" d="m42.22 16.62c.1897968.2365713.4767035.3742205.78.3742205s.5902032-.1376492.78-.3742205l4-5c.2371517-.3001041.2823411-.7091964.1164082-1.0538262s-.5139159-.5644168-.8964082-.5661738h-3v-5c0-.55228475-.4477153-1-1-1s-1 .44771525-1 1v5h-3c-.3824923.001757-.7304753.221544-.8964082.5661738s-.1207435.7537221.1164082 1.0538262zm2.7-4.62-1.92 2.4-1.92-2.4z" fill="#f5f5f5" data-original="#000000" style=""/><path id="Shape" d="m50 25c.5522847 0 1-.4477153 1-1s-.4477153-1-1-1h-14c-.5522847 0-1 .4477153-1 1s.4477153 1 1 1z" fill="#f5f5f5" data-original="#000000" style=""/><path id="Shape" d="m49 27h-11c-.5522847 0-1 .4477153-1 1s.4477153 1 1 1h11c.5522847 0 1-.4477153 1-1s-.4477153-1-1-1z" fill="#f5f5f5" data-original="#000000" style=""/></g></g></svg>
