<?xml version="1.0"?>
<svg xmlns="http://www.w3.org/2000/svg" xmlns:xlink="http://www.w3.org/1999/xlink" xmlns:svgjs="http://svgjs.com/svgjs" version="1.1" width="512" height="512" x="0" y="0" viewBox="0 0 64 64" style="enable-background:new 0 0 512 512" xml:space="preserve" class=""><g><path xmlns="http://www.w3.org/2000/svg" d="m54 34v-8h-12v8a6 6 0 0 0 12 0zm-8-3a1 1 0 0 1 -2 0v-1a1 1 0 0 1 2 0zm6 0a1 1 0 0 1 -2 0v-1a1 1 0 0 1 2 0z" fill="#f5f5f5" data-original="#000000" style="" class=""/><path xmlns="http://www.w3.org/2000/svg" d="m47.54 48.88-1.22 1.21 1.68 2.24 1.68-2.24-1.22-1.21a.942.942 0 0 1 -.92 0z" fill="#f5f5f5" data-original="#000000" style="" class=""/><path xmlns="http://www.w3.org/2000/svg" d="m10 36h3v4h-3z" fill="#f5f5f5" data-original="#000000" style="" class=""/><path xmlns="http://www.w3.org/2000/svg" d="m50 43.02v-1.28a7.822 7.822 0 0 1 -4 0v1.28a5.015 5.015 0 0 1 -.55 2.28l2.55 1.53 2.55-1.53a5.015 5.015 0 0 1 -.55-2.28z" fill="#f5f5f5" data-original="#000000" style="" class=""/><path xmlns="http://www.w3.org/2000/svg" d="m38.99 46.76 2.87-.86a3.025 3.025 0 0 0 2.14-2.88v-2.1a8.005 8.005 0 0 1 -4-6.92v-1h-1a2.006 2.006 0 0 1 -2-2v-3a2.006 2.006 0 0 1 2-2h1a3.009 3.009 0 0 1 -3-3v-5a1 1 0 0 1 1-1h11a7.008 7.008 0 0 1 7 7v-10h-52v37h30.46a6.948 6.948 0 0 1 4.53-4.24zm-26.99-29.76h10v2h-10zm0 4h10v2h-10zm-5-4h3v2h-3zm0 4h3v2h-3zm28 24a1 1 0 0 1 -1 1h-27a1 1 0 0 1 -1-1v-4a1 1 0 0 1 1-1h1v-5a1 1 0 0 1 1-1h5a1 1 0 0 1 1 1v5h2v-9a1 1 0 0 1 1-1h5a1 1 0 0 1 1 1v9h2v-16a1 1 0 0 1 1-1h5a1 1 0 0 1 1 1v16h1a1 1 0 0 1 1 1z" fill="#f5f5f5" data-original="#000000" style="" class=""/><path xmlns="http://www.w3.org/2000/svg" d="m56 28h1v3h-1z" fill="#f5f5f5" data-original="#000000" style="" class=""/><path xmlns="http://www.w3.org/2000/svg" d="m56 4h-52v8h52zm-48 6a2 2 0 1 1 2-2 2 2 0 0 1 -2 2zm6 0a2 2 0 1 1 2-2 2 2 0 0 1 -2 2zm6 0a2 2 0 1 1 2-2 2 2 0 0 1 -2 2z" fill="#f5f5f5" data-original="#000000" style="" class=""/><path xmlns="http://www.w3.org/2000/svg" d="m28 25h3v15h-3z" fill="#f5f5f5" data-original="#000000" style="" class=""/><path xmlns="http://www.w3.org/2000/svg" d="m19 32h3v8h-3z" fill="#f5f5f5" data-original="#000000" style="" class=""/><path xmlns="http://www.w3.org/2000/svg" d="m8 42h25v2h-25z" fill="#f5f5f5" data-original="#000000" style="" class=""/><path xmlns="http://www.w3.org/2000/svg" d="m53.92 47.93-.36-.11a4.906 4.906 0 0 1 -1.74-.95l-1.58.95 2.49 2.49z" fill="#f5f5f5" data-original="#000000" style="" class=""/><path xmlns="http://www.w3.org/2000/svg" d="m42.44 47.82-.36.11 1.19 2.38 2.49-2.49-1.58-.95a4.906 4.906 0 0 1 -1.74.95z" fill="#f5f5f5" data-original="#000000" style="" class=""/><path xmlns="http://www.w3.org/2000/svg" d="m48 55a.973.973 0 0 1 -.71-.33l-1.07 5.33h3.56l-1.07-5.33a.973.973 0 0 1 -.71.33z" fill="#f5f5f5" data-original="#000000" style="" class=""/><path xmlns="http://www.w3.org/2000/svg" d="m56.43 48.68-.56-.17-1.98 3.94a.972.972 0 0 1 -.73.54.86.86 0 0 1 -.16.01 1.007 1.007 0 0 1 -.71-.29l-1.18-1.19-.78 1.04 1.49 7.44h3.18v-3h2v3h3v-6.54a4.959 4.959 0 0 0 -3.57-4.78z" fill="#f5f5f5" data-original="#000000" style="" class=""/><path xmlns="http://www.w3.org/2000/svg" d="m49 19h-10v4a1 1 0 0 0 1 1h14a5 5 0 0 0 -5-5z" fill="#f5f5f5" data-original="#000000" style="" class=""/><path xmlns="http://www.w3.org/2000/svg" d="m39 28h1v3h-1z" fill="#f5f5f5" data-original="#000000" style="" class=""/><path xmlns="http://www.w3.org/2000/svg" d="m43.71 52.71a1.007 1.007 0 0 1 -.71.29.86.86 0 0 1 -.16-.01.972.972 0 0 1 -.73-.54l-1.98-3.94-.56.17a4.959 4.959 0 0 0 -3.57 4.78v6.54h3v-3h2v3h3.18l1.49-7.44-.78-1.04z" fill="#f5f5f5" data-original="#000000" style="" class=""/><path xmlns="http://www.w3.org/2000/svg" d="m54.14 45.9 1.86.56v-12.46a8.005 8.005 0 0 1 -4 6.92v2.1a3.025 3.025 0 0 0 2.14 2.88z" fill="#f5f5f5" data-original="#000000" style="" class=""/></g></svg>
